<svg xmlns="http://www.w3.org/2000/svg" viewBox="0 0 39 50" width="27" height="34"><path fill="#2E368F" d="M 19.9,0 H 19.7 L 0,2.1 V 38.3 L 19.7,50 39.4,38.3 V 2.1 Z M 36.9,36.8 19.7,47 2.5,36.8 V 22 L 19.6,32.2 V 34 L 7.9,27 v 1.8 l 11.8,7.1 v 1.9 l -11.8,-7 v 1.8 l 11.8,7 11.9,-7.1 v -7.6 l 5.3,-3.2 z m -0.1,-17 -4.7,2.8 -2.2,1.3 -10.3,-6.1 v 1.8 l 8.8,5.3 h -0.1 l -0.2,0.1 -1.3,0.7 -7.3,-4.3 v 1.8 l 5.8,3.4 -1.4,0.9 -4.3,-2.6 v 1.8 l 2.9,1.7 -2.9,1.7 L 2.6,20 19.6,9.8 Z M 36.9,18 19.6,7.8 2.5,18 V 4.4 L 19.7,2.6 36.9,4.4 Z"/></svg>
